<?xml version="1.0" encoding="utf-8"?>
<!-- Generator: Adobe Illustrator 19.2.1, SVG Export Plug-In . SVG Version: 6.00 Build 0)  -->
<!DOCTYPE svg PUBLIC "-//W3C//DTD SVG 1.1//EN" "http://www.w3.org/Graphics/SVG/1.1/DTD/svg11.dtd">
<svg version="1.1" id="Layer_1" xmlns="http://www.w3.org/2000/svg" xmlns:xlink="http://www.w3.org/1999/xlink" x="0px" y="0px"
	 width="864px" height="219.1px" viewBox="0 0 864 219.1" enable-background="new 0 0 864 219.1" xml:space="preserve">
<path fill="#DDEEC5" d="M0,0l270.9,0c12.6,0,22.8,10.5,22.8,23.4v13.4c0,12.9,10.2,23.4,22.8,23.4H864V215c0,2.2-1.8,4.1-4,4.1H0
	L0,0z"/>
<g>
	<rect x="70.2" y="14.7" fill="none" width="128.7" height="67.6"/>
	<path fill="#FFFFFF" stroke="#39B54A" stroke-miterlimit="10" d="M102.9,14.7v11.4h-8.8v45.5H79.3V26.1h-8.8V14.7H102.9z"/>
	<path fill="#FFFFFF" stroke="#39B54A" stroke-miterlimit="10" d="M120.5,14.7v7.4h-14.6v-7.4H120.5z M120.5,25v46.7h-14.6V25H120.5
		z"/>
	<path fill="#FFFFFF" stroke="#39B54A" stroke-miterlimit="10" d="M140.1,25l-0.2,4.1c1.3-1.7,2.7-2.9,4.2-3.7
		c1.5-0.8,3.2-1.2,5-1.2c2.2,0,4.1,0.6,5.7,1.8c1.6,1.2,2.6,2.5,3,4.1c0.4,1.5,0.6,4.2,0.6,7.9v19.7c0,4.2-0.3,7.3-0.8,9.1
		c-0.5,1.8-1.5,3.2-3.1,4.3c-1.6,1.1-3.4,1.6-5.6,1.6c-1.8,0-3.4-0.4-4.9-1.2c-1.5-0.8-2.9-2-4.1-3.7v10.7h-14.2V25H140.1z
		 M144.1,38.6c0-2.9-0.1-4.6-0.3-5.2c-0.2-0.6-0.8-0.9-1.8-0.9c-0.9,0-1.5,0.4-1.8,1.1c-0.3,0.7-0.4,2.4-0.4,5.1v19.3
		c0,2.8,0.1,4.6,0.4,5.3s0.9,1.1,1.8,1.1c0.9,0,1.5-0.3,1.7-1c0.2-0.6,0.3-2.2,0.3-4.7V38.6z"/>
	<path fill="#FFFFFF" stroke="#39B54A" stroke-miterlimit="10" d="M192,39.9h-12.6v-2.5c0-2.2-0.1-3.5-0.4-4.1
		c-0.2-0.6-0.9-0.9-1.8-0.9c-0.8,0-1.4,0.3-1.8,0.8c-0.4,0.5-0.6,1.3-0.6,2.4c0,1.4,0.1,2.5,0.3,3.1c0.2,0.7,0.8,1.4,1.8,2.2
		c1,0.8,3,2,6.1,3.5c4.1,2,6.8,3.9,8.1,5.7c1.3,1.8,1.9,4.4,1.9,7.8c0,3.8-0.5,6.7-1.5,8.6s-2.6,3.4-4.9,4.5c-2.3,1-5.1,1.6-8.3,1.6
		c-3.6,0-6.7-0.6-9.3-1.7s-4.3-2.6-5.3-4.6c-1-1.9-1.4-4.8-1.4-8.7v-2.2h12.6v3c0,2.5,0.2,4.1,0.5,4.9c0.3,0.8,0.9,1.1,1.9,1.1
		c1,0,1.7-0.3,2.1-0.8c0.4-0.5,0.6-1.6,0.6-3.2c0-2.2-0.3-3.6-0.8-4.2c-0.5-0.6-3.3-2.2-8.3-5c-4.2-2.3-6.7-4.5-7.6-6.4
		c-0.9-1.9-1.4-4.2-1.4-6.8c0-3.7,0.5-6.5,1.5-8.2c1-1.8,2.7-3.1,5-4.1c2.4-1,5.1-1.4,8.2-1.4c3.1,0,5.7,0.4,7.9,1.2
		c2.2,0.8,3.8,1.8,5,3.1c1.2,1.3,1.9,2.5,2.1,3.6c0.2,1.1,0.4,2.8,0.4,5.2V39.9z"/>
</g>
<g>
</g>
<g>
</g>
<g>
</g>
<g>
</g>
<g>
</g>
<g>
</g>
<g>
</g>
<g>
</g>
<g>
</g>
<g>
</g>
<g>
</g>
<g>
</g>
<g>
</g>
<g>
</g>
<g>
</g>
</svg>
